# xmcd CD database file
#
# Track frame offsets:
#	150
#	20998
#	38682
#	62273
#	86325
#	129226
#	146297
#	174947
#	197578
#	223720
#
# Disc length: 3393 seconds
#
# Revision: 0
# Processed by: cddbd v1.5PL3 Copyright (c) Steve Scherf et al.
# Submitted via: CDex 1.51
#
DISCID=7c0d3f0a
DTITLE=Bernd Scholl - Light Of The Moon
DYEAR=1997
DGENRE=New Age
TTITLE0=Indian Full Moon Spirit
TTITLE1=Cycles
TTITLE2=Moondance
TTITLE3=Watermoon
TTITLE4=Open Sky And Red Sand
TTITLE5=Delight
TTITLE6=Under The Stars
TTITLE7=Silver Wheel
TTITLE8=Oriental Nights
TTITLE9=Bernd Scholl - Lunar Eclipse
EXTD=YEAR: 1997
EXTT0=
EXTT1=
EXTT2=
EXTT3=
EXTT4=
EXTT5=
EXTT6=
EXTT7=
EXTT8=
EXTT9=
PLAYORDER=
